<?xml version="1.0" encoding="UTF-8" standalone="no"?>
<!-- Created with Inkscape (http://www.inkscape.org/) -->

<svg
   xmlns:dc="http://purl.org/dc/elements/1.1/"
   xmlns:cc="http://creativecommons.org/ns#"
   xmlns:rdf="http://www.w3.org/1999/02/22-rdf-syntax-ns#"
   xmlns:svg="http://www.w3.org/2000/svg"
   xmlns="http://www.w3.org/2000/svg"
   xmlns:sodipodi="http://sodipodi.sourceforge.net/DTD/sodipodi-0.dtd"
   xmlns:inkscape="http://www.inkscape.org/namespaces/inkscape"
   width="210mm"
   height="297mm"
   viewBox="0 0 210 297"
   version="1.1"
   id="svg8"
   inkscape:version="0.92.2 5c3e80d, 2017-08-06"
   sodipodi:docname="pot_onoff.svg">
  <sodipodi:namedview
     id="base"
     pagecolor="#ffffff"
     bordercolor="#666666"
     borderopacity="1.0"
     inkscape:pageopacity="0.0"
     inkscape:pageshadow="2"
     inkscape:zoom="1.4"
     inkscape:cx="370.46851"
     inkscape:cy="777.32035"
     inkscape:document-units="mm"
     inkscape:current-layer="layer1"
     showgrid="true"
     inkscape:window-width="1440"
     inkscape:window-height="828"
     inkscape:window-x="0"
     inkscape:window-y="0"
     inkscape:window-maximized="0">
    <inkscape:grid
       type="xygrid"
       id="grid4504" />
  </sodipodi:namedview>
  <defs
     id="defs2">
    <marker
       inkscape:stockid="Arrow2Send"
       orient="auto"
       refY="0.0"
       refX="0.0"
       id="Arrow2Send"
       style="overflow:visible;"
       inkscape:isstock="true">
      <path
         id="path5353"
         style="fill-rule:evenodd;stroke-width:0.625;stroke-linejoin:round;stroke:#000000;stroke-opacity:1;fill:#000000;fill-opacity:1"
         d="M 8.7185878,4.0337352 L -2.2072895,0.016013256 L 8.7185884,-4.0017078 C 6.9730900,-1.6296469 6.9831476,1.6157441 8.7185878,4.0337352 z "
         transform="scale(0.3) rotate(180) translate(-2.3,0)" />
    </marker>
    <marker
       inkscape:stockid="Arrow2Sstart"
       orient="auto"
       refY="0.0"
       refX="0.0"
       id="Arrow2Sstart"
       style="overflow:visible"
       inkscape:isstock="true">
      <path
         id="path5350"
         style="fill-rule:evenodd;stroke-width:0.625;stroke-linejoin:round;stroke:#000000;stroke-opacity:1;fill:#000000;fill-opacity:1"
         d="M 8.7185878,4.0337352 L -2.2072895,0.016013256 L 8.7185884,-4.0017078 C 6.9730900,-1.6296469 6.9831476,1.6157441 8.7185878,4.0337352 z "
         transform="scale(0.3) translate(-2.3,0)" />
    </marker>
    <marker
       inkscape:stockid="Arrow2Mend"
       orient="auto"
       refY="0.0"
       refX="0.0"
       id="Arrow2Mend"
       style="overflow:visible;"
       inkscape:isstock="true">
      <path
         id="path5347"
         style="fill-rule:evenodd;stroke-width:0.625;stroke-linejoin:round;stroke:#000000;stroke-opacity:1;fill:#000000;fill-opacity:1"
         d="M 8.7185878,4.0337352 L -2.2072895,0.016013256 L 8.7185884,-4.0017078 C 6.9730900,-1.6296469 6.9831476,1.6157441 8.7185878,4.0337352 z "
         transform="scale(0.6) rotate(180) translate(0,0)" />
    </marker>
    <marker
       inkscape:stockid="Arrow2Lend"
       orient="auto"
       refY="0.0"
       refX="0.0"
       id="Arrow2Lend"
       style="overflow:visible;"
       inkscape:isstock="true">
      <path
         id="path5341"
         style="fill-rule:evenodd;stroke-width:0.625;stroke-linejoin:round;stroke:#000000;stroke-opacity:1;fill:#000000;fill-opacity:1"
         d="M 8.7185878,4.0337352 L -2.2072895,0.016013256 L 8.7185884,-4.0017078 C 6.9730900,-1.6296469 6.9831476,1.6157441 8.7185878,4.0337352 z "
         transform="scale(1.1) rotate(180) translate(1,0)" />
    </marker>
  </defs>
  <metadata
     id="metadata5">
    <rdf:RDF>
      <cc:Work
         rdf:about="">
        <dc:format>image/svg+xml</dc:format>
        <dc:type
           rdf:resource="http://purl.org/dc/dcmitype/StillImage" />
        <dc:title />
      </cc:Work>
    </rdf:RDF>
  </metadata>
  <g
     inkscape:groupmode="layer"
     id="layer2"
     inkscape:label="Layer 2 [aux guidelines]"
     style="display:none">
    <rect
       style="opacity:1;fill:none;fill-opacity:1;fill-rule:nonzero;stroke:#000000;stroke-width:0.26499999;stroke-miterlimit:4;stroke-dasharray:none;stroke-dashoffset:0;stroke-opacity:1"
       id="rect4508"
       width="52.916664"
       height="52.916664"
       x="74.083336"
       y="40.354164" />
    <rect
       y="77.395828"
       x="92.604164"
       height="15.875"
       width="15.875"
       id="rect4551"
       style="opacity:1;fill:none;fill-opacity:1;fill-rule:nonzero;stroke:#000000;stroke-width:0.26499999;stroke-miterlimit:4;stroke-dasharray:none;stroke-dashoffset:0;stroke-opacity:1" />
  </g>
  <g
     inkscape:label="Layer 1"
     inkscape:groupmode="layer"
     id="layer1">
    <path
       style="fill:none;fill-rule:evenodd;stroke:#7e7e7e;stroke-width:0.16;stroke-linecap:butt;stroke-linejoin:miter;stroke-opacity:1;stroke-miterlimit:4;stroke-dasharray:0.32, 0.16000000000000000;stroke-dashoffset:0"
       d="m 44.979166,97.239575 0,-17.197919"
       id="path5290"
       inkscape:connector-curvature="0"
       sodipodi:nodetypes="cc" />
    <path
       style="display:inline;opacity:1;fill:none;fill-opacity:1;fill-rule:nonzero;stroke:#6f6f6f;stroke-width:0.26499999;stroke-miterlimit:4;stroke-dasharray:none;stroke-dashoffset:0;stroke-opacity:1"
       d="m 25.469492,69.965631 c 0.17817,0.425665 0.356341,0.8455 0.534511,1.259504 0.178171,0.414003 0.356341,0.822176 0.534512,1.224517 0.178171,0.402342 0.356341,0.798853 0.534512,1.189532 0.17817,0.39068 0.356341,0.775528 0.534512,1.154545 0.17817,0.379018 0.356341,0.752204 0.534511,1.119559 0.178171,0.367356 0.356341,0.72888 0.534512,1.084573 0.178171,0.355694 0.356341,0.705556 0.534512,1.049587 0.17817,0.344031 0.356341,0.682231 0.534512,1.0146 0.17817,0.33237 0.356341,0.658908 0.534511,0.979615 0.178171,0.320707 0.356342,0.635583 0.534512,0.944628 0.178171,0.309045 0.356341,0.612259 0.534512,0.909641 0.17817,0.297383 0.356341,0.588935 0.534512,0.874656 0.17817,0.285721 0.356341,0.565611 0.534511,0.839669 0.178171,0.274059 0.356342,0.542287 0.534512,0.804683 0.178171,0.262397 0.356341,0.518963 0.534512,0.769697 0.17817,0.250735 0.356341,0.495639 0.534512,0.734711 0.17817,0.239073 0.356341,0.472314 0.534511,0.699724 0.178171,0.227411 0.356342,0.44899 0.534512,0.664739 0.178171,0.215748 0.356341,0.425665 0.534512,0.629752 0.17817,0.204086 0.356341,0.402341 0.534512,0.594765 0.17817,0.192425 0.356341,0.379018 0.534511,0.55978 0.178171,0.180762 0.356342,0.355693 0.534512,0.524793 0.178171,0.1691 0.356341,0.332369 0.534512,0.489807 0.178171,0.157438 0.356341,0.309045 0.534512,0.454821 0.17817,0.145776 0.356341,0.285721 0.534511,0.419835 0.178171,0.134114 0.356342,0.262397 0.534512,0.384848 0.178171,0.122452 0.356341,0.239073 0.534512,0.349863 0.178171,0.110789 0.356341,0.215748 0.534512,0.314876 0.17817,0.09913 0.356341,0.192424 0.534511,0.279889 0.178171,0.08747 0.356342,0.169101 0.534512,0.244904 0.178171,0.0758 0.356341,0.145776 0.534512,0.209917 0.178171,0.06414 0.356341,0.122452 0.534512,0.174931 0.17817,0.05248 0.356341,0.09913 0.534512,0.139945 0.17817,0.04082 0.356341,0.0758 0.534511,0.104959 0.178171,0.02916 0.356341,0.05248 0.534512,0.06997 0.178171,0.01749 0.356341,0.02916 0.534512,0.03499 0.17817,0.0058 0.356341,0.0058 0.534512,0 0.17817,-0.0058 0.356341,-0.01749 0.534511,-0.03499 0.178171,-0.01749 0.356341,-0.04082 0.534512,-0.06997 0.178171,-0.02916 0.356341,-0.06414 0.534512,-0.104959 0.17817,-0.04082 0.356341,-0.08747 0.534512,-0.139945 0.17817,-0.05248 0.356341,-0.110789 0.534511,-0.174931 0.178171,-0.06414 0.356342,-0.134113 0.534512,-0.209917 0.178171,-0.0758 0.356341,-0.157438 0.534512,-0.244904 0.17817,-0.08746 0.356341,-0.180762 0.534512,-0.279889 0.17817,-0.09913 0.356341,-0.204087 0.534511,-0.314876 0.178171,-0.11079 0.356342,-0.227411 0.534512,-0.349863 0.178171,-0.122451 0.356341,-0.250734 0.534512,-0.384848 0.17817,-0.134114 0.356341,-0.274059 0.534512,-0.419835 0.17817,-0.145776 0.356341,-0.297383 0.534511,-0.454821 0.178171,-0.157438 0.356342,-0.320707 0.534512,-0.489807 0.178171,-0.1691 0.356341,-0.344031 0.534512,-0.524793 0.17817,-0.180762 0.356341,-0.367355 0.534512,-0.55978 0.17817,-0.192424 0.356341,-0.390679 0.534511,-0.594765 0.178171,-0.204087 0.356342,-0.414004 0.534512,-0.629752 0.178171,-0.215749 0.356341,-0.437328 0.534512,-0.664739 0.178171,-0.22741 0.356341,-0.460651 0.534512,-0.699724 0.17817,-0.239072 0.356341,-0.483976 0.534511,-0.734711 0.178171,-0.250734 0.356342,-0.5073 0.534512,-0.769697 0.178171,-0.262396 0.356341,-0.530624 0.534512,-0.804683 0.178171,-0.274058 0.356341,-0.553948 0.534512,-0.839669 0.17817,-0.285721 0.356341,-0.577273 0.534511,-0.874656 0.178171,-0.297382 0.356342,-0.600596 0.534512,-0.909641 0.178171,-0.309045 0.356341,-0.623921 0.534512,-0.944628 0.178171,-0.320707 0.356341,-0.647245 0.534512,-0.979615 0.17817,-0.332369 0.356341,-0.670569 0.534512,-1.0146 0.17817,-0.344031 0.356341,-0.693893 0.534511,-1.049587 0.178171,-0.355693 0.356341,-0.717217 0.534512,-1.084573 0.178171,-0.367355 0.356341,-0.740541 0.534512,-1.119559 0.17817,-0.379017 0.356341,-0.763865 0.534512,-1.154545 0.17817,-0.390679 0.356341,-0.78719 0.534511,-1.189532 0.178171,-0.402341 0.356341,-0.810514 0.534512,-1.224517 0.178171,-0.414004 0.356341,-0.833839 0.534512,-1.259504"
       title="x*x"
       id="path5041"
       inkscape:connector-curvature="0"
       sodipodi:nodetypes="ccsccccccccccssccscscccscccccccccccscscccccccccccccccssscsccccccscccccccsc" />
    <path
       id="path5266"
       title="exp(-x*x)/sqrt(pi)"
       d="m 37.041667,93.269723 c 0.0177,-8e-6 0.0354,-1.33e-4 0.05309,-1.41e-4 0.0177,-9e-6 0.0354,-1.49e-4 0.05309,-1.58e-4 0.0177,-9e-6 0.0354,-1.66e-4 0.05309,-1.76e-4 0.0177,-1.1e-5 0.0354,-1.86e-4 0.05309,-1.98e-4 0.0177,-1.2e-5 0.0354,-2.06e-4 0.05309,-2.2e-4 0.0177,-1.3e-5 0.0354,-2.31e-4 0.05309,-2.46e-4 0.0177,-1.5e-5 0.0354,-2.57e-4 0.05309,-2.73e-4 0.0177,-1.7e-5 0.0354,-2.86e-4 0.05309,-3.05e-4 0.0177,-1.9e-5 0.0354,-3.19e-4 0.05309,-3.4e-4 0.0177,-2.1e-5 0.0354,-3.53e-4 0.05309,-3.77e-4 0.0177,-2.4e-5 0.0354,-3.93e-4 0.05309,-4.19e-4 0.0177,-2.7e-5 0.0354,-4.36e-4 0.05309,-4.66e-4 0.0177,-2.9e-5 0.0354,-4.83e-4 0.05309,-5.16e-4 0.0177,-3.3e-5 0.0354,-5.35e-4 0.05309,-5.71e-4 0.0177,-3.7e-5 0.03539,-5.92e-4 0.05309,-6.33e-4 0.0177,-4.2e-5 0.0354,-6.55e-4 0.05309,-7.01e-4 0.0177,-4.5e-5 0.0354,-7.23e-4 0.05309,-7.74e-4 0.0177,-5e-5 0.03539,-7.97e-4 0.05309,-8.54e-4 0.0177,-5.7e-5 0.0354,-8.8e-4 0.05309,-9.43e-4 0.0177,-6.3e-5 0.0354,-9.69e-4 0.05309,-0.001 0.0177,-7e-5 0.03539,-0.0011 0.05309,-0.0011 0.0177,-7.7e-5 0.0354,-0.0012 0.05309,-0.0013 0.0177,-8.6e-5 0.0354,-0.0013 0.05309,-0.0014 0.0177,-9.5e-5 0.03539,-0.0014 0.05309,-0.0015 0.0177,-1.05e-4 0.0354,-0.0016 0.05309,-0.0017 0.0177,-1.17e-4 0.0354,-0.0017 0.05309,-0.0018 0.0177,-1.29e-4 0.0354,-0.0019 0.05309,-0.002 0.0177,-1.42e-4 0.0354,-0.002 0.05309,-0.0022 0.0177,-1.57e-4 0.0354,-0.0022 0.05309,-0.0024 0.0177,-1.73e-4 0.0354,-0.0024 0.05309,-0.0026 0.0177,-1.91e-4 0.0354,-0.0027 0.05309,-0.0029 0.0177,-2.1e-4 0.0354,-0.0029 0.05309,-0.0031 0.0177,-2.3e-4 0.0354,-0.0032 0.05309,-0.0034 0.0177,-2.53e-4 0.0354,-0.0034 0.05309,-0.0037 0.0177,-2.78e-4 0.0354,-0.0037 0.05309,-0.004 0.0177,-3.06e-4 0.0354,-0.0041 0.05309,-0.0044 0.0177,-3.35e-4 0.0354,-0.0044 0.05309,-0.0048 0.0177,-3.67e-4 0.0354,-0.0048 0.05309,-0.0052 0.0177,-4.02e-4 0.0354,-0.0052 0.05309,-0.0056 0.0177,-4.38e-4 0.0354,-0.0056 0.05309,-0.0061 0.0177,-4.79e-4 0.0354,-0.0061 0.05309,-0.0066 0.0177,-5.23e-4 0.0354,-0.0065 0.05309,-0.0071 0.0177,-5.71e-4 0.0354,-0.0071 0.05309,-0.0077 0.0177,-6.22e-4 0.0354,-0.0076 0.05309,-0.0083 0.0177,-6.78e-4 0.0354,-0.0082 0.05309,-0.0089 0.0177,-7.38e-4 0.0354,-0.0088 0.05309,-0.0096 0.0177,-8.02e-4 0.0354,-0.0095 0.05309,-0.01037 0.0177,-8.71e-4 0.0354,-0.01021 0.05309,-0.01115 0.0177,-9.45e-4 0.0354,-0.01096 0.05309,-0.01198 0.0177,-0.001 0.0354,-0.01175 0.05309,-0.01287 0.0177,-0.0011 0.0354,-0.01259 0.05309,-0.0138 0.0177,-0.0012 0.0354,-0.01348 0.05309,-0.01479 0.0177,-0.0013 0.0354,-0.01442 0.05309,-0.01583 0.0177,-0.0014 0.0354,-0.01541 0.05309,-0.01693 0.0177,-0.0015 0.0354,-0.01645 0.05309,-0.0181 0.0177,-0.0016 0.0354,-0.01755 0.05309,-0.01932 0.0177,-0.0018 0.0354,-0.0187 0.05309,-0.02061 0.0177,-0.0019 0.0354,-0.01991 0.05309,-0.02197 0.0177,-0.0021 0.0354,-0.02118 0.05309,-0.02339 0.0177,-0.0022 0.0354,-0.0225 0.05309,-0.02488 0.0177,-0.0024 0.0354,-0.02389 0.05309,-0.02644 0.0177,-0.0026 0.0354,-0.02533 0.05309,-0.02808 0.0177,-0.0027 0.0354,-0.02684 0.05309,-0.02979 0.0177,-0.0029 0.0354,-0.02841 0.05309,-0.03157 0.0177,-0.0032 0.0354,-0.03005 0.05309,-0.03342 0.0177,-0.0034 0.0354,-0.03174 0.05309,-0.03536 0.0177,-0.0036 0.0354,-0.0335 0.05309,-0.03737 0.0177,-0.0039 0.0354,-0.03532 0.05309,-0.03945 0.0177,-0.0041 0.0354,-0.03721 0.05309,-0.04162 0.0177,-0.0044 0.0354,-0.03915 0.05309,-0.04385 0.0177,-0.0047 0.0354,-0.04116 0.05309,-0.04617 0.0177,-0.005 0.0354,-0.04323 0.05309,-0.04856 0.0177,-0.0053 0.0354,-0.04535 0.05309,-0.05102 0.0177,-0.0057 0.0354,-0.04753 0.05309,-0.05356 0.0177,-0.006 0.0354,-0.04976 0.05309,-0.05617 0.0177,-0.0064 0.0354,-0.05204 0.05309,-0.05885 0.0177,-0.0068 0.03539,-0.05438 0.05309,-0.06159 0.0177,-0.0072 0.0354,-0.05675 0.05309,-0.0644 0.0177,-0.0076 0.0354,-0.05917 0.05309,-0.06727 0.0177,-0.0081 0.03539,-0.06163 0.05309,-0.0702 0.0177,-0.0086 0.0354,-0.06412 0.05309,-0.07318 0.0177,-0.0091 0.0354,-0.06664 0.05309,-0.07621 0.0177,-0.0096 0.03539,-0.06919 0.05309,-0.07928 0.0177,-0.0101 0.0354,-0.07175 0.05309,-0.08239 0.0177,-0.01065 0.0354,-0.07432 0.05309,-0.08554 0.0177,-0.01122 0.03539,-0.0769 0.05309,-0.08872 0.0177,-0.01181 0.0354,-0.07948 0.05309,-0.09191 0.0177,-0.01243 0.0354,-0.08206 0.05309,-0.09512 0.0177,-0.01306 0.0354,-0.08462 0.05309,-0.09834 0.0177,-0.01372 0.0354,-0.08716 0.05309,-0.101556 0.0177,-0.0144 0.0354,-0.08966 0.05309,-0.104765 0.0177,-0.0151 0.0354,-0.09213 0.05309,-0.107957 0.0177,-0.01582 0.0354,-0.09456 0.05309,-0.111123 0.0177,-0.01657 0.0354,-0.09693 0.05309,-0.114257 0.0177,-0.01733 0.0354,-0.09923 0.05309,-0.117345 0.0177,-0.01812 0.0354,-0.10146 0.05309,-0.120381 0.0177,-0.01892 0.0354,-0.103608 0.05309,-0.123354 0.0177,-0.01975 0.0354,-0.105662 0.05309,-0.126252 0.0177,-0.02059 0.0354,-0.107614 0.05309,-0.129068 0.0177,-0.02145 0.0354,-0.109454 0.05309,-0.13179 0.0177,-0.02233 0.0354,-0.111171 0.05309,-0.134406 0.0177,-0.02323 0.0354,-0.112756 0.05309,-0.136907 0.0177,-0.02415 0.0354,-0.1142 0.05309,-0.139282 0.0177,-0.02508 0.0354,-0.115491 0.05309,-0.14152 0.0177,-0.02603 0.0354,-0.116621 0.05309,-0.14361 0.0177,-0.02699 0.0354,-0.11758 0.05309,-0.145543 0.0177,-0.02796 0.0354,-0.118357 0.05309,-0.147305 0.0177,-0.02895 0.0354,-0.118946 0.05309,-0.14889 0.0177,-0.02994 0.0354,-0.119335 0.05309,-0.150284 0.0177,-0.03095 0.0354,-0.119517 0.05309,-0.151479 0.0177,-0.03196 0.0354,-0.119484 0.05309,-0.152466 0.0177,-0.03298 0.0354,-0.119227 0.05309,-0.153234 0.0177,-0.03401 0.0354,-0.118741 0.05309,-0.153777 0.0177,-0.03504 0.0354,-0.118017 0.05309,-0.154083 0.0177,-0.03607 0.0354,-0.117051 0.05309,-0.154148 0.0177,-0.0371 0.0354,-0.115835 0.05309,-0.153962 0.0177,-0.03813 0.0354,-0.114366 0.05309,-0.153521 0.0177,-0.03915 0.0354,-0.112639 0.05309,-0.152815 0.0177,-0.04018 0.0354,-0.110652 0.05309,-0.151844 0.0177,-0.04119 0.0354,-0.1084 0.05309,-0.1506 0.0177,-0.0422 0.0354,-0.105882 0.05309,-0.149079 0.0177,-0.0432 0.0354,-0.103099 0.05309,-0.14728 0.0177,-0.04418 0.0354,-0.100048 0.05309,-0.145201 0.0177,-0.04515 0.0354,-0.09673 0.05309,-0.142839 0.0177,-0.04611 0.0354,-0.09315 0.05309,-0.140195 0.0177,-0.04705 0.0354,-0.0893 0.05309,-0.137268 0.0177,-0.04797 0.0354,-0.0852 0.05309,-0.134063 0.0177,-0.04886 0.0354,-0.08084 0.05309,-0.130578 0.0177,-0.04974 0.0354,-0.07624 0.05309,-0.12682 0.0177,-0.05058 0.0354,-0.07139 0.05309,-0.122791 0.0177,-0.0514 0.0354,-0.0663 0.05309,-0.118498 0.0177,-0.0522 0.0354,-0.06099 0.05309,-0.113946 0.0177,-0.05296 0.0354,-0.05545 0.05309,-0.109143 0.0177,-0.05369 0.0354,-0.04971 0.05309,-0.104097 0.0177,-0.05439 0.0354,-0.04377 0.05309,-0.09882 0.0177,-0.05505 0.0354,-0.03764 0.05309,-0.09331 0.0177,-0.05567 0.0354,-0.03134 0.05309,-0.08759 0.0177,-0.05626 0.0354,-0.02487 0.05309,-0.08167 0.0177,-0.0568 0.0354,-0.01826 0.05309,-0.07556 0.0177,-0.05731 0.0354,-0.01151 0.05309,-0.06928 0.0177,-0.05777 0.0354,-0.0046 0.05309,-0.06283 0.0177,-0.05819 0.0354,0.0023 0.05309,-0.05623 0.0177,-0.05857 0.0354,0.0094 0.05309,-0.0495 0.0177,-0.0589 0.0354,0.01653 0.05309,-0.04265 0.0177,-0.05918 0.0354,0.02372 0.05309,-0.0357 0.0177,-0.05942 0.0354,0.03095 0.05309,-0.02866 0.0177,-0.05961 0.0354,0.0382 0.05309,-0.02156 0.0177,-0.05976 0.0354,0.04545 0.05309,-0.0144 0.0177,-0.05986 0.0354,0.05269 0.05309,-0.0072 0.0177,-0.0599 0.0354,0.0599 0.05309,0 0.0177,-0.0599 0.0354,0.06706 0.05309,0.0072 0.0177,-0.05986 0.0354,0.07416 0.05309,0.0144 0.0177,-0.05976 0.0354,0.08117 0.05309,0.02156 0.0177,-0.05961 0.0354,0.08809 0.05309,0.02866 0.0177,-0.05942 0.0354,0.09489 0.05309,0.0357 0.0177,-0.05918 0.03539,0.101552 0.05309,0.04265 0.0177,-0.0589 0.0354,0.108069 0.05309,0.0495 0.0177,-0.05857 0.0354,0.114424 0.05309,0.05623 0.0177,-0.05819 0.03539,0.120601 0.05309,0.06283 0.0177,-0.05777 0.0354,0.126587 0.05309,0.06928 0.0177,-0.05731 0.0354,0.132367 0.05309,0.07556 0.0177,-0.0568 0.03539,0.137931 0.05309,0.08167 0.0177,-0.05626 0.0354,0.143265 0.05309,0.08759 0.0177,-0.05567 0.0354,0.148358 0.05309,0.09331 0.0177,-0.05505 0.03539,0.153202 0.05309,0.09882 0.0177,-0.05439 0.0354,0.157786 0.05309,0.104097 0.0177,-0.05369 0.0354,0.162102 0.05309,0.109143 0.0177,-0.05296 0.0354,0.166143 0.05309,0.113946 0.0177,-0.0522 0.0354,0.169902 0.05309,0.118498 0.0177,-0.0514 0.0354,0.173374 0.05309,0.122791 0.0177,-0.05058 0.0354,0.176555 0.05309,0.12682 0.0177,-0.04974 0.0354,0.179439 0.05309,0.130578 0.0177,-0.04886 0.0354,0.182027 0.05309,0.134063 0.0177,-0.04797 0.0354,0.184315 0.05309,0.137268 0.0177,-0.04705 0.0354,0.186303 0.05309,0.140195 0.0177,-0.04611 0.0354,0.187992 0.05309,0.142839 0.0177,-0.04515 0.0354,0.189382 0.05309,0.145201 0.0177,-0.04418 0.0354,0.190477 0.05309,0.14728 0.0177,-0.0432 0.0354,0.191279 0.05309,0.149079 0.0177,-0.0422 0.0354,0.191792 0.05309,0.1506 0.0177,-0.04119 0.0354,0.19202 0.05309,0.151844 0.0177,-0.04018 0.0354,0.19197 0.05309,0.152815 0.0177,-0.03915 0.0354,0.191648 0.05309,0.153521 0.0177,-0.03813 0.0354,0.191059 0.05309,0.153962 0.0177,-0.0371 0.0354,0.190214 0.05309,0.154148 0.0177,-0.03607 0.0354,0.189119 0.05309,0.154083 0.0177,-0.03504 0.0354,0.187784 0.05309,0.153777 0.0177,-0.03401 0.0354,0.186216 0.05309,0.153234 0.0177,-0.03298 0.0354,0.184428 0.05309,0.152466 0.0177,-0.03196 0.0354,0.182428 0.05309,0.151479 0.0177,-0.03095 0.0354,0.180228 0.05309,0.150284 0.0177,-0.02994 0.0354,0.177838 0.05309,0.14889 0.0177,-0.02895 0.0354,0.175268 0.05309,0.147305 0.0177,-0.02796 0.0354,0.172532 0.05309,0.145543 0.0177,-0.02699 0.0354,0.169639 0.05309,0.14361 0.0177,-0.02603 0.0354,0.166602 0.05309,0.14152 0.0177,-0.02508 0.0354,0.163433 0.05309,0.139282 0.0177,-0.02415 0.0354,0.160142 0.05309,0.136907 0.0177,-0.02323 0.0354,0.156742 0.05309,0.134406 0.0177,-0.02233 0.0354,0.153244 0.05309,0.13179 0.0177,-0.02145 0.0354,0.149658 0.05309,0.129068 0.0177,-0.02059 0.0354,0.145998 0.05309,0.126252 0.0177,-0.01975 0.0354,0.142275 0.05309,0.123354 0.0177,-0.01892 0.0354,0.138496 0.05309,0.120381 0.0177,-0.01812 0.0354,0.134676 0.05309,0.117345 0.0177,-0.01733 0.0354,0.130823 0.05309,0.114257 0.0177,-0.01657 0.0354,0.126947 0.05309,0.111123 0.0177,-0.01582 0.0354,0.123059 0.05309,0.107957 0.0177,-0.0151 0.0354,0.119165 0.05309,0.104765 0.0177,-0.0144 0.0354,0.115277 0.05309,0.101556 0.0177,-0.01372 0.0354,0.111402 0.05309,0.09834 0.0177,-0.01306 0.0354,0.107548 0.05309,0.09512 0.0177,-0.01243 0.0354,0.103723 0.05309,0.09191 0.0177,-0.01181 0.0354,0.09993 0.05309,0.08872 0.0177,-0.01122 0.0354,0.09619 0.05309,0.08554 0.0177,-0.01065 0.0354,0.09249 0.05309,0.08239 0.0177,-0.0101 0.0354,0.08885 0.05309,0.07928 0.0177,-0.0096 0.0354,0.08526 0.05309,0.07621 0.0177,-0.0091 0.0354,0.08174 0.05309,0.07318 0.0177,-0.0086 0.0354,0.07829 0.05309,0.0702 0.0177,-0.0081 0.0354,0.07492 0.05309,0.06727 0.0177,-0.0076 0.0354,0.07162 0.05309,0.0644 0.0177,-0.0072 0.0354,0.0684 0.05309,0.06159 0.0177,-0.0068 0.0354,0.06526 0.05309,0.05885 0.0177,-0.0064 0.0354,0.0622 0.05309,0.05617 0.0177,-0.006 0.0354,0.05924 0.05309,0.05356 0.0177,-0.0057 0.0354,0.05636 0.05309,0.05102 0.0177,-0.0053 0.0354,0.05357 0.05309,0.04856 0.0177,-0.005 0.0354,0.05087 0.05309,0.04617 0.0177,-0.0047 0.0354,0.04826 0.05309,0.04385 0.0177,-0.0044 0.0354,0.04574 0.05309,0.04162 0.0177,-0.0041 0.0354,0.04332 0.05309,0.03945 0.0177,-0.0039 0.0354,0.04098 0.05309,0.03737 0.0177,-0.0036 0.0354,0.03874 0.05309,0.03536 0.0177,-0.0034 0.03539,0.03658 0.05309,0.03342 0.0177,-0.0032 0.0354,0.03451 0.05309,0.03157 0.0177,-0.0029 0.0354,0.03253 0.05309,0.02979 0.0177,-0.0027 0.03539,0.03064 0.05309,0.02808 0.0177,-0.0026 0.0354,0.02882 0.05309,0.02644 0.0177,-0.0024 0.0354,0.0271 0.05309,0.02488 0.0177,-0.0022 0.03539,0.02545 0.05309,0.02339 0.0177,-0.0021 0.0354,0.02388 0.05309,0.02197 0.0177,-0.0019 0.0354,0.02238 0.05309,0.02061 0.0177,-0.0018 0.03539,0.02097 0.05309,0.01932 0.0177,-0.0016 0.0354,0.01962 0.05309,0.0181 0.0177,-0.0015 0.0354,0.01834 0.05309,0.01693 0.0177,-0.0014 0.0354,0.01713 0.05309,0.01583 0.0177,-0.0013 0.0354,0.01599 0.05309,0.01479 0.0177,-0.0012 0.0354,0.01491 0.05309,0.0138 0.0177,-0.0011 0.0354,0.01389 0.05309,0.01287 0.0177,-0.001 0.0354,0.01293 0.05309,0.01198 0.0177,-9.45e-4 0.0354,0.01202 0.05309,0.01115 0.0177,-8.71e-4 0.0354,0.01117 0.05309,0.01037 0.0177,-8.02e-4 0.0354,0.01037 0.05309,0.0096 0.0177,-7.38e-4 0.0354,0.0096 0.05309,0.0089 0.0177,-6.78e-4 0.0354,0.0089 0.05309,0.0083 0.0177,-6.22e-4 0.0354,0.0083 0.05309,0.0077 0.0177,-5.71e-4 0.0354,0.0076 0.05309,0.0071 0.0177,-5.23e-4 0.0354,0.0071 0.05309,0.0066 0.0177,-4.79e-4 0.0354,0.0065 0.05309,0.0061 0.0177,-4.38e-4 0.0354,0.006 0.05309,0.0056 0.0177,-4.02e-4 0.0354,0.0055 0.05309,0.0052 0.0177,-3.67e-4 0.0354,0.0051 0.05309,0.0048 0.0177,-3.35e-4 0.0354,0.0047 0.05309,0.0044 0.0177,-3.06e-4 0.0354,0.0043 0.05309,0.004 0.0177,-2.78e-4 0.0354,0.004 0.05309,0.0037 0.0177,-2.53e-4 0.0354,0.0036 0.05309,0.0034 0.0177,-2.3e-4 0.0354,0.0033 0.05309,0.0031 0.0177,-2.1e-4 0.0354,0.0031 0.05309,0.0029 0.0177,-1.91e-4 0.0354,0.0028 0.05309,0.0026 0.0177,-1.73e-4 0.0354,0.0026 0.05309,0.0024 0.0177,-1.57e-4 0.0354,0.0023 0.05309,0.0022 0.0177,-1.42e-4 0.0354,0.0021 0.05309,0.002 0.0177,-1.29e-4 0.0354,0.0019 0.05309,0.0018 0.0177,-1.17e-4 0.0354,0.0018 0.05309,0.0017 0.0177,-1.05e-4 0.0354,0.0016 0.05309,0.0015 0.0177,-9.5e-5 0.0354,0.0015 0.05309,0.0014 0.0177,-8.6e-5 0.0354,0.0013 0.05309,0.0013 0.0177,-7.7e-5 0.0354,0.0012 0.05309,0.0011 0.0177,-7e-5 0.0354,0.0011 0.05309,0.001 0.0177,-6.3e-5 0.0354,10e-4 0.05309,9.43e-4 0.0177,-5.7e-5 0.0354,9.05e-4 0.05309,8.54e-4 0.0177,-5e-5 0.0354,8.2e-4 0.05309,7.74e-4 0.0177,-4.5e-5 0.0354,7.42e-4 0.05309,7.01e-4 0.0177,-4.2e-5 0.0354,6.69e-4 0.05309,6.33e-4 0.0177,-3.7e-5 0.0354,6.04e-4 0.05309,5.71e-4 0.0177,-3.3e-5 0.0354,5.46e-4 0.05309,5.16e-4 0.0177,-2.9e-5 0.0354,4.92e-4 0.05309,4.66e-4 0.0177,-2.7e-5 0.0354,4.43e-4 0.05309,4.19e-4 0.0177,-2.4e-5 0.0354,3.98e-4 0.05309,3.77e-4 0.0177,-2.1e-5 0.0354,3.59e-4 0.05309,3.4e-4 0.0177,-1.9e-5 0.0354,3.21e-4 0.05309,3.05e-4 0.0177,-1.7e-5 0.0354,2.88e-4 0.05309,2.73e-4 0.0177,-1.5e-5 0.0354,2.6e-4 0.05309,2.46e-4 0.0177,-1.3e-5 0.0354,2.32e-4 0.05309,2.2e-4 0.0177,-1.2e-5 0.0354,2.08e-4 0.05309,1.98e-4 0.0177,-1.1e-5 0.0354,1.85e-4 0.05309,1.76e-4 0.0177,-9e-6 0.0354,1.66e-4 0.05309,1.58e-4 0.0177,-9e-6 0.0354,1.48e-4 0.05309,1.41e-4"
       style="display:inline;opacity:1;fill:none;fill-opacity:1;fill-rule:nonzero;stroke:#1f77b4;stroke-width:0.26499999;stroke-miterlimit:4;stroke-dasharray:none;stroke-dashoffset:0;stroke-opacity:1"
       inkscape:connector-curvature="0" />
    <path
       sodipodi:nodetypes="ccsccccccccccssccscscccscccccccccccscscccccccccccccccssscsccccccscccccccsc"
       inkscape:connector-curvature="0"
       id="path5286"
       title="x*x"
       d="m 81.033082,69.965631 c 0.17817,0.425665 0.356341,0.8455 0.534511,1.259504 0.178171,0.414003 0.356341,0.822176 0.534512,1.224517 0.178171,0.402342 0.356341,0.798853 0.534512,1.189532 0.17817,0.39068 0.356341,0.775528 0.534512,1.154545 0.17817,0.379018 0.356341,0.752204 0.534511,1.119559 0.178171,0.367356 0.356341,0.72888 0.534512,1.084573 0.178171,0.355694 0.356341,0.705556 0.534512,1.049587 0.17817,0.344031 0.356341,0.682231 0.534512,1.0146 0.17817,0.33237 0.356341,0.658908 0.534511,0.979615 0.178171,0.320707 0.356342,0.635583 0.534512,0.944628 0.178171,0.309045 0.356341,0.612259 0.534512,0.909641 0.17817,0.297383 0.356341,0.588935 0.534512,0.874656 0.17817,0.285721 0.356341,0.565611 0.534511,0.839669 0.178171,0.274059 0.356342,0.542287 0.534512,0.804683 0.178171,0.262397 0.356341,0.518963 0.534512,0.769697 0.17817,0.250735 0.356341,0.495639 0.534512,0.734711 0.17817,0.239073 0.356341,0.472314 0.534511,0.699724 0.178171,0.227411 0.356342,0.44899 0.534512,0.664739 0.178171,0.215748 0.356341,0.425665 0.534512,0.629752 0.17817,0.204086 0.356341,0.402341 0.534512,0.594765 0.17817,0.192425 0.356341,0.379018 0.534511,0.55978 0.178171,0.180762 0.356342,0.355693 0.534512,0.524793 0.178171,0.1691 0.356341,0.332369 0.534512,0.489807 0.178171,0.157438 0.356341,0.309045 0.534512,0.454821 0.17817,0.145776 0.356341,0.285721 0.534511,0.419835 0.178171,0.134114 0.356342,0.262397 0.534512,0.384848 0.178171,0.122452 0.356341,0.239073 0.534512,0.349863 0.178171,0.110789 0.356341,0.215748 0.534512,0.314876 0.17817,0.09913 0.356341,0.192424 0.534511,0.279889 0.178171,0.08747 0.356342,0.169101 0.534512,0.244904 0.178171,0.0758 0.356341,0.145776 0.534512,0.209917 0.178171,0.06414 0.356341,0.122452 0.534512,0.174931 0.17817,0.05248 0.356341,0.09913 0.534512,0.139945 0.17817,0.04082 0.356341,0.0758 0.534511,0.104959 0.178171,0.02916 0.356341,0.05248 0.534512,0.06997 0.178171,0.01749 0.356337,0.02916 0.534517,0.03499 0.17817,0.0058 0.35634,0.0058 0.53451,0 0.17817,-0.0058 0.35634,-0.01749 0.53451,-0.03499 0.17817,-0.01749 0.35634,-0.04082 0.53451,-0.06997 0.17817,-0.02916 0.35634,-0.06414 0.53452,-0.104959 0.17817,-0.04082 0.35634,-0.08747 0.53451,-0.139945 0.17817,-0.05248 0.35634,-0.110789 0.53451,-0.174931 0.17817,-0.06414 0.35634,-0.134113 0.53451,-0.209917 0.17817,-0.0758 0.35634,-0.157438 0.53451,-0.244904 0.17817,-0.08746 0.35634,-0.180762 0.53451,-0.279889 0.17817,-0.09913 0.35635,-0.204087 0.53452,-0.314876 0.17817,-0.11079 0.35634,-0.227411 0.53451,-0.349863 0.17817,-0.122451 0.35634,-0.250734 0.53451,-0.384848 0.17817,-0.134114 0.35634,-0.274059 0.53451,-0.419835 0.17817,-0.145776 0.35634,-0.297383 0.53451,-0.454821 0.17817,-0.157438 0.35634,-0.320707 0.53451,-0.489807 0.17818,-0.1691 0.35635,-0.344031 0.53452,-0.524793 0.17817,-0.180762 0.35634,-0.367355 0.53451,-0.55978 0.17817,-0.192424 0.35634,-0.390679 0.53451,-0.594765 0.17817,-0.204087 0.35634,-0.414004 0.53451,-0.629752 0.17817,-0.215749 0.35634,-0.437328 0.53451,-0.664739 0.17817,-0.22741 0.35634,-0.460651 0.53452,-0.699724 0.17817,-0.239072 0.35634,-0.483976 0.53451,-0.734711 0.17817,-0.250734 0.35634,-0.5073 0.53451,-0.769697 0.17817,-0.262396 0.35634,-0.530624 0.53451,-0.804683 0.17817,-0.274058 0.35634,-0.553948 0.53451,-0.839669 0.17817,-0.285721 0.35634,-0.577273 0.53451,-0.874656 0.17817,-0.297382 0.35635,-0.600596 0.53452,-0.909641 0.17817,-0.309045 0.35634,-0.623921 0.53451,-0.944628 0.17817,-0.320707 0.35634,-0.647245 0.53451,-0.979615 0.17817,-0.332369 0.35634,-0.670569 0.53451,-1.0146 0.17817,-0.344031 0.35634,-0.693893 0.53451,-1.049587 0.17817,-0.355693 0.35634,-0.717217 0.53451,-1.084573 0.17818,-0.367355 0.35635,-0.740541 0.53452,-1.119559 0.17817,-0.379017 0.35634,-0.763865 0.53451,-1.154545 0.17817,-0.390679 0.35634,-0.78719 0.53451,-1.189532 0.17817,-0.402341 0.35634,-0.810514 0.53451,-1.224517 0.17817,-0.414004 0.35634,-0.833839 0.53451,-1.259504"
       style="display:inline;opacity:1;fill:none;fill-opacity:1;fill-rule:nonzero;stroke:#6f6f6f;stroke-width:0.26499999;stroke-miterlimit:4;stroke-dasharray:none;stroke-dashoffset:0;stroke-opacity:1" />
    <path
       inkscape:connector-curvature="0"
       style="display:inline;opacity:1;fill:none;fill-opacity:1;fill-rule:nonzero;stroke:#1f77b4;stroke-width:0.26499999;stroke-miterlimit:4;stroke-dasharray:none;stroke-dashoffset:0;stroke-opacity:1"
       d="m 87.3115,93.269723 c 0.0177,-8e-6 0.0354,-1.33e-4 0.05309,-1.41e-4 0.0177,-9e-6 0.0354,-1.49e-4 0.05309,-1.58e-4 0.0177,-9e-6 0.0354,-1.66e-4 0.05309,-1.76e-4 0.0177,-1.1e-5 0.0354,-1.86e-4 0.05309,-1.98e-4 0.0177,-1.2e-5 0.0354,-2.06e-4 0.05309,-2.2e-4 0.0177,-1.3e-5 0.0354,-2.31e-4 0.05309,-2.46e-4 0.0177,-1.5e-5 0.0354,-2.57e-4 0.05309,-2.73e-4 0.0177,-1.7e-5 0.0354,-2.86e-4 0.05309,-3.05e-4 0.0177,-1.9e-5 0.0354,-3.19e-4 0.05309,-3.4e-4 0.0177,-2.1e-5 0.0354,-3.53e-4 0.05309,-3.77e-4 0.0177,-2.4e-5 0.0354,-3.93e-4 0.05309,-4.19e-4 0.0177,-2.7e-5 0.0354,-4.36e-4 0.05309,-4.66e-4 0.0177,-2.9e-5 0.0354,-4.83e-4 0.05309,-5.16e-4 0.0177,-3.3e-5 0.0354,-5.35e-4 0.05309,-5.71e-4 0.0177,-3.7e-5 0.03539,-5.92e-4 0.05309,-6.33e-4 0.0177,-4.2e-5 0.0354,-6.55e-4 0.05309,-7.01e-4 0.0177,-4.5e-5 0.0354,-7.23e-4 0.05309,-7.74e-4 0.0177,-5e-5 0.03539,-7.97e-4 0.05309,-8.54e-4 0.0177,-5.7e-5 0.0354,-8.8e-4 0.05309,-9.43e-4 0.0177,-6.3e-5 0.0354,-9.69e-4 0.05309,-0.001 0.0177,-7e-5 0.03539,-0.0011 0.05309,-0.0011 0.0177,-7.7e-5 0.0354,-0.0012 0.05309,-0.0013 0.0177,-8.6e-5 0.0354,-0.0013 0.05309,-0.0014 0.0177,-9.5e-5 0.03539,-0.0014 0.05309,-0.0015 0.0177,-1.05e-4 0.0354,-0.0016 0.05309,-0.0017 0.0177,-1.17e-4 0.0354,-0.0017 0.05309,-0.0018 0.0177,-1.29e-4 0.0354,-0.0019 0.05309,-0.002 0.0177,-1.42e-4 0.0354,-0.002 0.05309,-0.0022 0.0177,-1.57e-4 0.0354,-0.0022 0.05309,-0.0024 0.0177,-1.73e-4 0.0354,-0.0024 0.05309,-0.0026 0.0177,-1.91e-4 0.0354,-0.0027 0.05309,-0.0029 0.0177,-2.1e-4 0.0354,-0.0029 0.05309,-0.0031 0.0177,-2.3e-4 0.0354,-0.0032 0.05309,-0.0034 0.0177,-2.53e-4 0.0354,-0.0034 0.05309,-0.0037 0.0177,-2.78e-4 0.0354,-0.0037 0.05309,-0.004 0.0177,-3.06e-4 0.0354,-0.0041 0.05309,-0.0044 0.0177,-3.35e-4 0.0354,-0.0044 0.05309,-0.0048 0.0177,-3.67e-4 0.0354,-0.0048 0.05309,-0.0052 0.0177,-4.02e-4 0.0354,-0.0052 0.05309,-0.0056 0.0177,-4.38e-4 0.0354,-0.0056 0.05309,-0.0061 0.0177,-4.79e-4 0.0354,-0.0061 0.05309,-0.0066 0.0177,-5.23e-4 0.0354,-0.0065 0.05309,-0.0071 0.0177,-5.71e-4 0.0354,-0.0071 0.05309,-0.0077 0.0177,-6.22e-4 0.0354,-0.0076 0.05309,-0.0083 0.0177,-6.78e-4 0.0354,-0.0082 0.05309,-0.0089 0.0177,-7.38e-4 0.0354,-0.0088 0.05309,-0.0096 0.0177,-8.02e-4 0.0354,-0.0095 0.05309,-0.01037 0.0177,-8.71e-4 0.0354,-0.01021 0.05309,-0.01115 0.0177,-9.45e-4 0.0354,-0.01096 0.05309,-0.01198 0.0177,-0.001 0.0354,-0.01175 0.05309,-0.01287 0.0177,-0.0011 0.0354,-0.01259 0.05309,-0.0138 0.0177,-0.0012 0.0354,-0.01348 0.05309,-0.01479 0.0177,-0.0013 0.0354,-0.01442 0.05309,-0.01583 0.0177,-0.0014 0.0354,-0.01541 0.05309,-0.01693 0.0177,-0.0015 0.0354,-0.01645 0.05309,-0.0181 0.0177,-0.0016 0.0354,-0.01755 0.05309,-0.01932 0.0177,-0.0018 0.0354,-0.0187 0.05309,-0.02061 0.0177,-0.0019 0.0354,-0.01991 0.05309,-0.02197 0.0177,-0.0021 0.0354,-0.02118 0.05309,-0.02339 0.0177,-0.0022 0.0354,-0.0225 0.05309,-0.02488 0.0177,-0.0024 0.0354,-0.02389 0.05309,-0.02644 0.0177,-0.0026 0.0354,-0.02533 0.05309,-0.02808 0.0177,-0.0027 0.0354,-0.02684 0.05309,-0.02979 0.0177,-0.0029 0.0354,-0.02841 0.05309,-0.03157 0.0177,-0.0032 0.0354,-0.03005 0.05309,-0.03342 0.0177,-0.0034 0.0354,-0.03174 0.05309,-0.03536 0.0177,-0.0036 0.0354,-0.0335 0.05309,-0.03737 0.0177,-0.0039 0.0354,-0.03532 0.05309,-0.03945 0.0177,-0.0041 0.0354,-0.03721 0.05309,-0.04162 0.0177,-0.0044 0.0354,-0.03915 0.05309,-0.04385 0.0177,-0.0047 0.0354,-0.04116 0.05309,-0.04617 0.0177,-0.005 0.0354,-0.04323 0.05309,-0.04856 0.0177,-0.0053 0.0354,-0.04535 0.05309,-0.05102 0.0177,-0.0057 0.0354,-0.04753 0.05309,-0.05356 0.0177,-0.006 0.0354,-0.04976 0.05309,-0.05617 0.0177,-0.0064 0.0354,-0.05204 0.05309,-0.05885 0.0177,-0.0068 0.03539,-0.05438 0.05309,-0.06159 0.0177,-0.0072 0.0354,-0.05675 0.05309,-0.0644 0.0177,-0.0076 0.0354,-0.05917 0.05309,-0.06727 0.0177,-0.0081 0.03539,-0.06163 0.05309,-0.0702 0.0177,-0.0086 0.0354,-0.06412 0.05309,-0.07318 0.0177,-0.0091 0.0354,-0.06664 0.05309,-0.07621 0.0177,-0.0096 0.03539,-0.06919 0.05309,-0.07928 0.0177,-0.0101 0.0354,-0.07175 0.05309,-0.08239 0.0177,-0.01065 0.0354,-0.07432 0.05309,-0.08554 0.0177,-0.01122 0.03539,-0.0769 0.05309,-0.08872 0.0177,-0.01181 0.0354,-0.07948 0.05309,-0.09191 0.0177,-0.01243 0.0354,-0.08206 0.05309,-0.09512 0.0177,-0.01306 0.0354,-0.08462 0.05309,-0.09834 0.0177,-0.01372 0.0354,-0.08716 0.05309,-0.101556 0.0177,-0.0144 0.0354,-0.08966 0.0531,-0.104765 0.0177,-0.0151 0.0354,-0.09213 0.0531,-0.107957 0.0177,-0.01582 0.0354,-0.09456 0.0531,-0.111123 0.0177,-0.01657 0.0354,-0.09693 0.0531,-0.114257 0.0177,-0.01733 0.0354,-0.09923 0.0531,-0.117345 0.0177,-0.01812 0.0354,-0.10146 0.0531,-0.120381 0.0177,-0.01892 0.0354,-0.103608 0.0531,-0.123354 0.0177,-0.01975 0.0354,-0.105662 0.0531,-0.126252 0.0177,-0.02059 0.0354,-0.107614 0.0531,-0.129068 0.0177,-0.02145 0.0354,-0.109454 0.0531,-0.13179 0.0177,-0.02233 0.0354,-0.111171 0.0531,-0.134406 0.0177,-0.02323 0.0354,-0.112756 0.0531,-0.136907 0.0177,-0.02415 0.0354,-0.1142 0.0531,-0.139282 0.0177,-0.02508 0.0354,-0.115491 0.0531,-0.14152 0.0177,-0.02603 0.0354,-0.116621 0.0531,-0.14361 0.0177,-0.02699 0.0354,-0.11758 0.0531,-0.145543 0.0177,-0.02796 0.0354,-0.118357 0.0531,-0.147305 0.0177,-0.02895 0.0354,-0.118946 0.0531,-0.14889 0.0177,-0.02994 0.0354,-0.119335 0.0531,-0.150284 0.0177,-0.03095 0.0354,-0.119517 0.0531,-0.151479 0.0177,-0.03196 0.0354,-0.119484 0.0531,-0.152466 0.0177,-0.03298 0.0354,-0.119227 0.0531,-0.153234 0.0177,-0.03401 0.0354,-0.118741 0.0531,-0.153777 0.0177,-0.03504 0.0354,-0.118017 0.0531,-0.154083 0.0177,-0.03607 0.0354,-0.117051 0.0531,-0.154148 0.0177,-0.0371 0.0354,-0.115835 0.0531,-0.153962 0.0177,-0.03813 0.0354,-0.114366 0.0531,-0.153521 0.0177,-0.03915 0.0354,-0.112639 0.0531,-0.152815 0.0177,-0.04018 0.0354,-0.110652 0.0531,-0.151844 0.0177,-0.04119 0.0354,-0.1084 0.0531,-0.1506 0.0177,-0.0422 0.0354,-0.105882 0.0531,-0.149079 0.0177,-0.0432 0.0354,-0.103099 0.0531,-0.14728 0.0177,-0.04418 0.0354,-0.100048 0.0531,-0.145201 0.0177,-0.04515 0.0354,-0.09673 0.0531,-0.142839 0.0177,-0.04611 0.0354,-0.09315 0.0531,-0.140195 0.0177,-0.04705 0.0354,-0.0893 0.0531,-0.137268 0.0177,-0.04797 0.0354,-0.0852 0.0531,-0.134063 0.0177,-0.04886 0.0354,-0.08084 0.0531,-0.130578 0.0177,-0.04974 0.0354,-0.07624 0.0531,-0.12682 0.0177,-0.05058 0.0354,-0.07139 0.0531,-0.122791 0.0177,-0.0514 0.0354,-0.0663 0.0531,-0.118498 0.0177,-0.0522 0.0354,-0.06099 0.0531,-0.113946 0.0177,-0.05296 0.0354,-0.05545 0.0531,-0.109143 0.0177,-0.05369 0.0354,-0.04971 0.0531,-0.104097 0.0177,-0.05439 0.0354,-0.04377 0.0531,-0.09882 0.0177,-0.05505 0.0354,-0.03764 0.0531,-0.09331 0.0177,-0.05567 0.0354,-0.03134 0.0531,-0.08759 0.0177,-0.05626 0.0354,-0.02487 0.0531,-0.08167 0.0177,-0.0568 0.0354,-0.01826 0.0531,-0.07556 0.0177,-0.05731 0.0354,-0.01151 0.0531,-0.06928 0.0177,-0.05777 0.0354,-0.0046 0.0531,-0.06283 0.0177,-0.05819 0.0354,0.0023 0.0531,-0.05623 0.0177,-0.05857 0.0354,0.0094 0.0531,-0.0495 0.0177,-0.0589 0.0354,0.01653 0.0531,-0.04265 0.0177,-0.05918 0.0354,0.02372 0.0531,-0.0357 0.0177,-0.05942 0.0354,0.03095 0.0531,-0.02866 0.0177,-0.05961 0.0354,0.0382 0.0531,-0.02156 0.0177,-0.05976 0.0354,0.04545 0.0531,-0.0144 0.0177,-0.05986 0.0354,0.05269 0.0531,-0.0072 0.0177,-0.0599 0.0354,0.0599 0.0531,0 0.0177,-0.0599 0.0354,0.06706 0.0531,0.0072 0.0177,-0.05986 0.0354,0.07416 0.0531,0.0144 0.0177,-0.05976 0.0354,0.08117 0.0531,0.02156 0.0177,-0.05961 0.0354,0.08809 0.0531,0.02866 0.0177,-0.05942 0.0354,0.09489 0.0531,0.0357 0.0177,-0.05918 0.0354,0.101552 0.0531,0.04265 0.0177,-0.0589 0.0354,0.108069 0.0531,0.0495 0.0177,-0.05857 0.0354,0.114424 0.0531,0.05623 0.0177,-0.05819 0.0354,0.120601 0.0531,0.06283 0.0177,-0.05777 0.0354,0.126587 0.0531,0.06928 0.0177,-0.05731 0.0354,0.132367 0.0531,0.07556 0.0177,-0.0568 0.0354,0.137931 0.0531,0.08167 0.0177,-0.05626 0.0354,0.143265 0.0531,0.08759 0.0177,-0.05567 0.0354,0.148358 0.0531,0.09331 0.0177,-0.05505 0.0354,0.153202 0.0531,0.09882 0.0177,-0.05439 0.0354,0.157786 0.0531,0.104097 0.0177,-0.05369 0.0354,0.162102 0.0531,0.109143 0.0177,-0.05296 0.0354,0.166143 0.0531,0.113946 0.0177,-0.0522 0.0354,0.169902 0.0531,0.118498 0.0177,-0.0514 0.0354,0.173374 0.0531,0.122791 0.0177,-0.05058 0.0354,0.176555 0.0531,0.12682 0.0177,-0.04974 0.0354,0.179439 0.0531,0.130578 0.0177,-0.04886 0.0354,0.182027 0.0531,0.134063 0.0177,-0.04797 0.0354,0.184315 0.0531,0.137268 0.0177,-0.04705 0.0354,0.186303 0.0531,0.140195 0.0177,-0.04611 0.0354,0.187992 0.0531,0.142839 0.0177,-0.04515 0.0354,0.189382 0.0531,0.145201 0.0177,-0.04418 0.0354,0.190477 0.0531,0.14728 0.0177,-0.0432 0.0354,0.191279 0.0531,0.149079 0.0177,-0.0422 0.0354,0.191792 0.0531,0.1506 0.0177,-0.04119 0.0354,0.19202 0.0531,0.151844 0.0177,-0.04018 0.0354,0.19197 0.0531,0.152815 0.0177,-0.03915 0.0354,0.191648 0.0531,0.153521 0.0177,-0.03813 0.0354,0.191059 0.0531,0.153962 0.0177,-0.0371 0.0354,0.190214 0.0531,0.154148 0.0177,-0.03607 0.0354,0.189119 0.0531,0.154083 0.0177,-0.03504 0.0354,0.187784 0.0531,0.153777 0.0177,-0.03401 0.0354,0.186216 0.0531,0.153234 0.0177,-0.03298 0.0354,0.184428 0.0531,0.152466 0.0177,-0.03196 0.0354,0.182428 0.0531,0.151479 0.0177,-0.03095 0.0354,0.180228 0.0531,0.150284 0.0177,-0.02994 0.0354,0.177838 0.0531,0.14889 0.0177,-0.02895 0.0354,0.175268 0.0531,0.147305 0.0177,-0.02796 0.0354,0.172532 0.0531,0.145543 0.0177,-0.02699 0.0354,0.169639 0.0531,0.14361 0.0177,-0.02603 0.0354,0.166602 0.0531,0.14152 0.0177,-0.02508 0.0354,0.163433 0.0531,0.139282 0.0177,-0.02415 0.0354,0.160142 0.0531,0.136907 0.0177,-0.02323 0.0354,0.156742 0.0531,0.134406 0.0177,-0.02233 0.0354,0.153244 0.0531,0.13179 0.0177,-0.02145 0.0354,0.149658 0.0531,0.129068 0.0177,-0.02059 0.0354,0.145998 0.0531,0.126252 0.0177,-0.01975 0.0354,0.142275 0.0531,0.123354 0.0177,-0.01892 0.0354,0.138496 0.0531,0.120381 0.0177,-0.01812 0.0354,0.134676 0.0531,0.117345 0.0177,-0.01733 0.0354,0.130823 0.0531,0.114257 0.0177,-0.01657 0.0354,0.126947 0.0531,0.111123 0.0177,-0.01582 0.0354,0.123059 0.0531,0.107957 0.0177,-0.0151 0.0354,0.119165 0.0531,0.104765 0.0177,-0.0144 0.0354,0.115277 0.0531,0.101556 0.0177,-0.01372 0.0354,0.111402 0.0531,0.09834 0.0177,-0.01306 0.0354,0.107548 0.0531,0.09512 0.0177,-0.01243 0.0354,0.103723 0.0531,0.09191 0.0177,-0.01181 0.0354,0.09993 0.0531,0.08872 0.0177,-0.01122 0.0354,0.09619 0.0531,0.08554 0.0177,-0.01065 0.0354,0.09249 0.0531,0.08239 0.0177,-0.0101 0.0354,0.08885 0.0531,0.07928 0.0177,-0.0096 0.0354,0.08526 0.0531,0.07621 0.0177,-0.0091 0.0354,0.08174 0.0531,0.07318 0.0177,-0.0086 0.0354,0.07829 0.0531,0.0702 0.0177,-0.0081 0.0354,0.07492 0.0531,0.06727 0.0177,-0.0076 0.0354,0.07162 0.0531,0.0644 0.0177,-0.0072 0.0354,0.0684 0.0531,0.06159 0.0177,-0.0068 0.0354,0.06526 0.0531,0.05885 0.0177,-0.0064 0.0354,0.0622 0.0531,0.05617 0.0177,-0.006 0.0354,0.05924 0.0531,0.05356 0.0177,-0.0057 0.0354,0.05636 0.0531,0.05102 0.0177,-0.0053 0.0354,0.05357 0.0531,0.04856 0.0177,-0.005 0.0354,0.05087 0.0531,0.04617 0.0177,-0.0047 0.0354,0.04826 0.0531,0.04385 0.0177,-0.0044 0.0354,0.04574 0.0531,0.04162 0.0177,-0.0041 0.0354,0.04332 0.0531,0.03945 0.0177,-0.0039 0.0354,0.04098 0.0531,0.03737 0.0177,-0.0036 0.0354,0.03874 0.0531,0.03536 0.0177,-0.0034 0.0354,0.03658 0.0531,0.03342 0.0177,-0.0032 0.0354,0.03451 0.0531,0.03157 0.0177,-0.0029 0.0354,0.03253 0.0531,0.02979 0.0177,-0.0027 0.0354,0.03064 0.0531,0.02808 0.0177,-0.0026 0.0354,0.02882 0.0531,0.02644 0.0177,-0.0024 0.0354,0.0271 0.0531,0.02488 0.0177,-0.0022 0.0354,0.02545 0.0531,0.02339 0.0177,-0.0021 0.0354,0.02388 0.0531,0.02197 0.0177,-0.0019 0.0354,0.02238 0.0531,0.02061 0.0177,-0.0018 0.0354,0.02097 0.0531,0.01932 0.0177,-0.0016 0.0354,0.01962 0.0531,0.0181 0.0177,-0.0015 0.0354,0.01834 0.0531,0.01693 0.0177,-0.0014 0.0354,0.01713 0.0531,0.01583 0.0177,-0.0013 0.0354,0.01599 0.0531,0.01479 0.0177,-0.0012 0.0354,0.01491 0.0531,0.0138 0.0177,-0.0011 0.0354,0.01389 0.0531,0.01287 0.0177,-0.001 0.0354,0.01293 0.0531,0.01198 0.0177,-9.45e-4 0.0354,0.01202 0.0531,0.01115 0.0177,-8.71e-4 0.0354,0.01117 0.0531,0.01037 0.0177,-8.02e-4 0.0354,0.01037 0.0531,0.0096 0.0177,-7.38e-4 0.0354,0.0096 0.0531,0.0089 0.0177,-6.78e-4 0.0354,0.0089 0.0531,0.0083 0.0177,-6.22e-4 0.0354,0.0083 0.0531,0.0077 0.0177,-5.71e-4 0.0354,0.0076 0.0531,0.0071 0.0177,-5.23e-4 0.0354,0.0071 0.0531,0.0066 0.0177,-4.79e-4 0.0354,0.0065 0.0531,0.0061 0.0177,-4.38e-4 0.0354,0.006 0.0531,0.0056 0.0177,-4.02e-4 0.0354,0.0055 0.0531,0.0052 0.0177,-3.67e-4 0.0354,0.0051 0.0531,0.0048 0.0177,-3.35e-4 0.0354,0.0047 0.0531,0.0044 0.0177,-3.06e-4 0.0354,0.0043 0.0531,0.004 0.0177,-2.78e-4 0.0354,0.004 0.0531,0.0037 0.0177,-2.53e-4 0.0354,0.0036 0.0531,0.0034 0.0177,-2.3e-4 0.0354,0.0033 0.0531,0.0031 0.0177,-2.1e-4 0.0354,0.0031 0.0531,0.0029 0.0177,-1.91e-4 0.0354,0.0028 0.0531,0.0026 0.0177,-1.73e-4 0.0354,0.0026 0.0531,0.0024 0.0177,-1.57e-4 0.0354,0.0023 0.0531,0.0022 0.0177,-1.42e-4 0.0354,0.0021 0.0531,0.002 0.0177,-1.29e-4 0.0354,0.0019 0.0531,0.0018 0.0177,-1.17e-4 0.0354,0.0018 0.0531,0.0017 0.0177,-1.05e-4 0.0354,0.0016 0.0531,0.0015 0.0177,-9.5e-5 0.0354,0.0015 0.0531,0.0014 0.0177,-8.6e-5 0.0354,0.0013 0.0531,0.0013 0.0177,-7.7e-5 0.0354,0.0012 0.0531,0.0011 0.0177,-7e-5 0.0354,0.0011 0.0531,0.001 0.0177,-6.3e-5 0.0354,10e-4 0.0531,9.43e-4 0.0177,-5.7e-5 0.0354,9.05e-4 0.0531,8.54e-4 0.0177,-5e-5 0.0354,8.2e-4 0.0531,7.74e-4 0.0177,-4.5e-5 0.0354,7.42e-4 0.0531,7.01e-4 0.0177,-4.2e-5 0.0354,6.69e-4 0.0531,6.33e-4 0.0177,-3.7e-5 0.0354,6.04e-4 0.0531,5.71e-4 0.0177,-3.3e-5 0.0354,5.46e-4 0.0531,5.16e-4 0.0177,-2.9e-5 0.0354,4.92e-4 0.0531,4.66e-4 0.0177,-2.7e-5 0.0354,4.43e-4 0.0531,4.19e-4 0.0177,-2.4e-5 0.0354,3.98e-4 0.0531,3.77e-4 0.0177,-2.1e-5 0.0354,3.59e-4 0.0531,3.4e-4 0.0177,-1.9e-5 0.0354,3.21e-4 0.0531,3.05e-4 0.0177,-1.7e-5 0.0354,2.88e-4 0.0531,2.73e-4 0.0177,-1.5e-5 0.0354,2.6e-4 0.0531,2.46e-4 0.0177,-1.3e-5 0.0354,2.32e-4 0.0531,2.2e-4 0.0177,-1.2e-5 0.0354,2.08e-4 0.0531,1.98e-4 0.0177,-1.1e-5 0.0354,1.85e-4 0.0531,1.76e-4 0.0177,-9e-6 0.0354,1.66e-4 0.0531,1.58e-4 0.0177,-9e-6 0.0354,1.48e-4 0.0531,1.41e-4"
       title="exp(-x*x)/sqrt(pi)"
       id="path5288" />
    <flowRoot
       xml:space="preserve"
       id="flowRoot5292"
       style="font-style:normal;font-weight:normal;font-size:10px;line-height:125%;font-family:sans-serif;letter-spacing:0px;word-spacing:0px;fill:#000000;fill-opacity:1;stroke:none;stroke-width:1px;stroke-linecap:butt;stroke-linejoin:miter;stroke-opacity:1"
       transform="matrix(0.26458333,0,0,0.26458333,-0.78027131,-0.60413808)"><flowRegion
         id="flowRegion5294"><rect
           id="rect5296"
           width="35"
           height="15"
           x="175"
           y="357.51965" /></flowRegion><flowPara
         id="flowPara5298"
         style="font-style:normal;font-variant:normal;font-weight:normal;font-stretch:normal;font-size:8px;font-family:'Bitstream Vera Sans';-inkscape-font-specification:'Bitstream Vera Sans'">$x=0$</flowPara></flowRoot>    <path
       sodipodi:nodetypes="cc"
       inkscape:connector-curvature="0"
       id="path5300"
       d="M 100.54167,97.239575 V 80.041656"
       style="fill:none;fill-rule:evenodd;stroke:#7e7e7e;stroke-width:0.16;stroke-linecap:butt;stroke-linejoin:miter;stroke-miterlimit:4;stroke-dasharray:0.32, 0.16;stroke-dashoffset:0;stroke-opacity:1" />
    <flowRoot
       transform="matrix(0.26458333,0,0,0.26458333,54.782229,-0.60413808)"
       style="font-style:normal;font-weight:normal;font-size:10px;line-height:125%;font-family:sans-serif;letter-spacing:0px;word-spacing:0px;fill:#000000;fill-opacity:1;stroke:none;stroke-width:1px;stroke-linecap:butt;stroke-linejoin:miter;stroke-opacity:1"
       id="flowRoot5308"
       xml:space="preserve"><flowRegion
         id="flowRegion5304"><rect
           y="357.51965"
           x="175"
           height="15"
           width="39.464287"
           id="rect5302" /></flowRegion><flowPara
         style="font-style:normal;font-variant:normal;font-weight:normal;font-stretch:normal;font-size:8px;font-family:'Bitstream Vera Sans';-inkscape-font-specification:'Bitstream Vera Sans'"
         id="flowPara5306">$x=x_0$</flowPara></flowRoot>    <flowRoot
       xml:space="preserve"
       id="flowRoot5310"
       style="fill:black;stroke:none;stroke-opacity:1;stroke-width:1px;stroke-linejoin:miter;stroke-linecap:butt;fill-opacity:1;font-family:sans-serif;font-style:normal;font-weight:normal;font-size:10px;line-height:125%;letter-spacing:0px;word-spacing:0px"><flowRegion
         id="flowRegion5312"><rect
           id="rect5314"
           width="75"
           height="20"
           x="240"
           y="292.51965" /></flowRegion><flowPara
         id="flowPara5316" /></flowRoot>    <path
       style="fill:none;fill-rule:evenodd;stroke:#000000;stroke-width:0.80000001;stroke-linecap:butt;stroke-linejoin:miter;stroke-miterlimit:4;stroke-dasharray:none;stroke-opacity:1;marker-end:url(#Arrow2Send)"
       d="M 66.675,82.6875 H 78.58125"
       id="path5318"
       inkscape:connector-curvature="0" />
  </g>
</svg>
